<svg width="1546" height="1968" viewBox="0 0 1546 1968" fill="none" xmlns="http://www.w3.org/2000/svg">
<path d="M591 1550C557.863 1550 531 1523.14 531 1490V1210C531 1176.86 557.863 1150 591 1150H871C904.137 1150 931 1176.86 931 1210V1490C931 1523.14 904.137 1550 871 1550H591Z" fill="#0076A3"/>
<rect x="809" y="1186.27" width="377.886" height="126.532" transform="rotate(-50.773 809 1186.27)" fill="#0076A3"/>
<rect x="1133.48" y="1747.93" width="377.993" height="126.532" transform="rotate(-143.152 1133.48 1747.93)" fill="#0076A3"/>
<rect x="273" y="570.681" width="462.185" height="126.532" transform="rotate(-47.1202 273 570.681)" fill="#0076A3"/>
<rect x="1055.52" y="587.133" width="365.447" height="126.532" transform="rotate(-132.42 1055.52 587.133)" fill="#0076A3"/>
<rect y="541" width="400" height="400" rx="60" fill="#0076A3"/>
<rect x="561" y="341" width="341" height="341" rx="60" transform="rotate(-90 561 341)" fill="#0076A3"/>
<rect x="1113" y="1968" width="341" height="341" rx="60" transform="rotate(-90 1113 1968)" fill="#0076A3"/>
<rect x="1020" y="478" width="526" height="526" rx="60" fill="#0076A3"/>
</svg>
